<svg width="18" height="18" viewBox="0 0 18 18" fill="none" xmlns="http://www.w3.org/2000/svg">
<path fill-rule="evenodd" clip-rule="evenodd" d="M3.59572 5.29184C3.59572 4.35509 4.35547 3.59534 5.29147 3.59534H6.06322C6.51022 3.59534 6.93997 3.41834 7.25797 3.10259L7.79722 2.56259C8.45797 1.89884 9.53197 1.89584 10.1957 2.55659L10.2025 2.56259L10.7425 3.10259C11.0597 3.41834 11.4895 3.59534 11.9372 3.59534H12.7082C13.645 3.59534 14.4047 4.35509 14.4047 5.29184V6.06209C14.4047 6.51059 14.5817 6.93959 14.8975 7.25759L15.4375 7.79759C16.1012 8.45834 16.105 9.53159 15.4442 10.1961L15.4375 10.2028L14.8975 10.7428C14.5817 11.0593 14.4047 11.4898 14.4047 11.9368V12.7086C14.4047 13.6453 13.645 14.4043 12.7082 14.4043H11.9372C11.4895 14.4043 11.0597 14.5821 10.7425 14.8978L10.2025 15.4371C9.54247 16.1016 8.46847 16.1046 7.80397 15.4438C7.80172 15.4416 7.79947 15.4393 7.79722 15.4371L7.25797 14.8978C6.93997 14.5821 6.51022 14.4043 6.06322 14.4043H5.29147C4.35547 14.4043 3.59572 13.6453 3.59572 12.7086V11.9368C3.59572 11.4898 3.41797 11.0593 3.10222 10.7428L2.56297 10.2028C1.89847 9.54209 1.89547 8.46809 2.55622 7.80434L2.56297 7.79759L3.10222 7.25759C3.41797 6.93959 3.59572 6.51059 3.59572 6.06209V5.29184Z" stroke="#008ECC" stroke-linecap="round" stroke-linejoin="round"/>
<path d="M7.07251 10.9271L10.9275 7.07211" stroke="#008ECC" stroke-linecap="round" stroke-linejoin="round"/>
<path d="M10.925 11.4918C10.775 11.4918 10.6325 11.4318 10.5275 11.3268C10.475 11.2743 10.4375 11.2068 10.4075 11.1393C10.3775 11.0718 10.3625 11.005 10.3625 10.9293C10.3625 10.8543 10.3775 10.7793 10.4075 10.7118C10.4375 10.6443 10.475 10.5843 10.5275 10.5318C10.7375 10.3218 11.1125 10.3218 11.3225 10.5318C11.375 10.5843 11.42 10.6443 11.45 10.7118C11.4725 10.7793 11.4875 10.8543 11.4875 10.9293C11.4875 11.005 11.4725 11.0718 11.45 11.1393C11.42 11.2068 11.375 11.2743 11.3225 11.3268C11.2175 11.4318 11.075 11.4918 10.925 11.4918Z" fill="#008ECC"/>
<path d="M7.06995 7.63708C6.99495 7.63708 6.92745 7.62133 6.85995 7.59133C6.79245 7.56133 6.72495 7.52457 6.67245 7.47207C6.61995 7.41207 6.58245 7.35207 6.55245 7.28457C6.52245 7.21632 6.50745 7.14957 6.50745 7.07457C6.50745 6.99882 6.52245 6.92457 6.55245 6.85707C6.58245 6.78957 6.61995 6.72207 6.67245 6.67707C6.88995 6.46632 7.25745 6.46632 7.46745 6.67707C7.57245 6.78132 7.63245 6.92457 7.63245 7.07457C7.63245 7.14957 7.62495 7.21632 7.59495 7.28457C7.56495 7.35207 7.51995 7.41207 7.46745 7.47207C7.41495 7.52457 7.35495 7.56133 7.28745 7.59133C7.21995 7.62133 7.14495 7.63708 7.06995 7.63708Z" fill="#008ECC"/>
</svg>
