<svg width="18" height="18" viewBox="0 0 18 18" fill="none" xmlns="http://www.w3.org/2000/svg">
<path fill-rule="evenodd" clip-rule="evenodd" d="M3.17935 7.79349C3.19016 4.61305 5.77717 2.04355 8.95761 2.05432C12.1381 2.06516 14.7075 4.65218 14.6968 7.83262V7.89784C14.6576 9.96523 13.5033 11.8761 12.088 13.3696C11.2787 14.21 10.3749 14.9541 9.39457 15.587C9.13245 15.8137 8.74365 15.8137 8.48153 15.587C7.02015 14.6358 5.73755 13.4349 4.6924 12.0391C3.76086 10.8221 3.23198 9.34481 3.17935 7.81305V7.79349Z" stroke="#008ECC" stroke-linecap="round" stroke-linejoin="round"/>
<path d="M8.93804 9.75002C9.95737 9.75002 10.7837 8.92369 10.7837 7.90437C10.7837 6.88504 9.95737 6.05872 8.93804 6.05872C7.91872 6.05872 7.09239 6.88504 7.09239 7.90437C7.09239 8.92369 7.91872 9.75002 8.93804 9.75002Z" stroke="#008ECC" stroke-linecap="round" stroke-linejoin="round"/>
</svg>
